<?xml version="1.0" standalone="no"?>
<!DOCTYPE svg PUBLIC "-//W3C//DTD SVG 20010904//EN"
 "http://www.w3.org/TR/2001/REC-SVG-20010904/DTD/svg10.dtd">
<svg version="1.0" xmlns="http://www.w3.org/2000/svg"
 width="200.000000pt" height="202.000000pt" viewBox="0 0 200.000000 202.000000"
 preserveAspectRatio="xMidYMid meet">
<metadata>
Created by potrace 1.10, written by Peter Selinger 2001-2011
</metadata>
<g transform="translate(0.000000,202.000000) scale(0.100000,-0.100000)"
fill="#000000" stroke="none">
<path d="M843 1857 c-27 -6 -43 -15 -43 -25 0 -9 7 -13 19 -9 16 4 21 -3 28
-42 5 -30 13 -46 23 -46 16 0 17 11 6 62 -6 26 -4 32 14 38 20 6 23 27 4 31
-5 1 -28 -3 -51 -9z"/>
<path d="M980 1850 c-28 -28 -25 -64 6 -89 31 -25 44 -26 69 -8 25 19 11 41
-17 26 -28 -15 -53 9 -43 41 6 18 12 21 36 16 31 -6 50 11 28 25 -24 15 -58
10 -79 -11z"/>
<path d="M1147 1798 c-25 -36 -33 -55 -24 -60 6 -4 17 -2 24 3 15 13 49 3 57
-16 3 -8 10 -15 17 -15 7 0 9 14 4 43 -17 118 -24 121 -78 45z"/>
<path d="M676 1799 c-15 -12 -26 -30 -26 -45 0 -29 33 -64 60 -64 25 0 70 42
70 65 0 20 -44 65 -63 65 -8 0 -26 -9 -41 -21z m58 -25 c19 -19 4 -57 -21 -52
-26 5 -39 34 -24 52 17 20 26 20 45 0z"/>
<path d="M1302 1748 c-20 -35 -27 -56 -20 -63 9 -10 11 -8 46 42 11 16 12 13
7 -18 -7 -46 1 -53 35 -29 37 26 45 25 26 -2 -18 -26 -21 -58 -5 -58 10 0 59
100 59 120 0 16 -23 11 -50 -10 -36 -28 -40 -25 -40 25 0 61 -20 59 -58 -7z"/>
<path d="M517 1723 c-39 -44 -15 -103 42 -103 34 0 61 28 61 62 0 50 -69 78
-103 41z m68 -43 c0 -18 -6 -26 -23 -28 -13 -2 -25 3 -28 12 -10 26 4 48 28
44 17 -2 23 -10 23 -28z"/>
<path d="M810 1637 c-133 -40 -278 -135 -340 -222 -24 -32 -28 -34 -82 -35
-51 0 -58 -2 -58 -20 0 -20 5 -20 663 -18 581 3 662 5 662 18 0 11 -13 16 -43
18 -39 3 -51 11 -120 80 -87 87 -157 132 -264 169 -61 22 -94 27 -208 30 -119
3 -144 0 -210 -20z m180 -22 c0 -8 -4 -15 -9 -15 -5 0 -12 -8 -16 -17 -9 -26
30 -56 56 -43 23 13 25 43 4 60 -29 24 -16 32 43 24 166 -20 324 -101 417
-211 l27 -33 -191 0 c-186 0 -191 1 -179 19 10 16 20 18 63 14 44 -5 55 -2 78
18 27 24 40 66 22 70 -5 1 -12 -6 -14 -17 -11 -62 -88 -74 -146 -23 -57 50
-78 109 -39 109 8 0 14 5 14 10 0 18 -39 11 -50 -9 -15 -29 -13 -35 30 -89
l39 -50 -20 -26 c-16 -21 -29 -26 -63 -26 -41 0 -43 1 -38 26 4 21 1 25 -14
22 -13 -3 -18 -11 -17 -26 3 -21 0 -23 -44 -20 -39 2 -50 8 -62 29 -14 25 -13
29 22 70 42 48 47 81 15 103 -29 21 -47 8 -18 -14 30 -23 21 -47 -35 -99 -33
-31 -53 -41 -78 -41 -43 0 -77 25 -77 56 0 13 -4 24 -10 24 -20 0 -10 -51 15
-75 25 -26 85 -34 114 -16 14 9 40 -11 41 -31 0 -5 -86 -8 -192 -8 l-192 0 57
58 c110 111 264 179 430 191 9 0 17 -6 17 -14z m26 -36 c10 -17 -13 -36 -27
-22 -12 12 -4 33 11 33 5 0 12 -5 16 -11z"/>
<path d="M752 1554 c-16 -11 -22 -24 -20 -42 3 -25 7 -27 51 -28 30 0 46 3 44
10 -2 6 -21 10 -41 9 -25 -2 -36 2 -36 11 0 16 24 38 36 34 5 -2 10 2 12 7 5
17 -22 16 -46 -1z"/>
<path d="M834 1556 c-10 -26 4 -48 28 -44 17 2 23 10 23 28 0 18 -6 26 -23 28
-13 2 -25 -3 -28 -12z"/>
<path d="M1120 1555 c-16 -20 -6 -45 19 -45 26 0 45 32 29 48 -16 16 -33 15
-48 -3z"/>
<path d="M1207 1563 c-13 -12 -7 -25 8 -19 17 6 48 -21 40 -35 -4 -5 -20 -8
-37 -6 -17 1 -33 -3 -35 -9 -7 -21 78 -12 91 9 9 15 6 23 -17 43 -29 25 -39
29 -50 17z"/>
<path d="M941 1494 c-34 -28 -44 -84 -16 -84 11 0 13 7 9 29 -12 57 75 83 121
36 26 -25 32 -45 15 -45 -5 0 -10 -4 -10 -10 0 -16 30 -11 37 6 8 22 -17 63
-49 80 -40 21 -73 17 -107 -12z"/>
<path d="M614 1466 c-9 -37 2 -58 28 -54 19 2 23 9 23 38 0 29 -4 36 -22 38
-17 3 -24 -3 -29 -22z"/>
<path d="M977 1479 c-9 -6 -15 -15 -11 -20 4 -6 11 -6 20 2 11 9 18 9 29 -1 9
-7 19 -10 23 -6 4 4 -2 14 -12 22 -23 16 -25 17 -49 3z"/>
<path d="M1334 1466 c-9 -37 2 -58 28 -54 19 2 23 9 23 38 0 29 -4 36 -22 38
-17 3 -24 -3 -29 -22z"/>
<path d="M1491 1616 c-28 -28 -39 -46 -31 -51 6 -4 18 -1 26 6 11 9 18 8 35
-7 22 -20 43 -13 63 19 13 20 -10 70 -34 75 -9 1 -35 -17 -59 -42z m65 -21
c-5 -14 -9 -15 -21 -5 -12 10 -13 16 -4 27 15 18 34 1 25 -22z"/>
<path d="M372 1597 c-12 -13 -22 -26 -22 -30 0 -11 74 -76 87 -77 17 0 55 57
51 77 -2 10 -12 19 -23 21 -11 3 -24 10 -28 18 -12 21 -41 17 -65 -9z m78 -62
c-9 -11 -16 -13 -23 -6 -7 7 -6 15 3 26 9 11 16 13 23 6 7 -7 6 -15 -3 -26z"/>
<path d="M362 1242 l-32 -27 2 -265 3 -265 178 0 179 0 34 37 c34 37 34 39 34
132 0 85 -2 98 -23 122 l-23 27 23 23 c20 20 23 33 23 104 0 77 -2 83 -29 111
l-29 29 -154 0 c-152 -1 -153 -1 -186 -28z m60 -232 c1 -208 2 -222 21 -235
14 -10 25 -11 42 -3 16 7 29 7 41 0 12 -7 25 -7 36 -1 12 6 25 6 37 0 10 -6
35 -8 55 -4 23 4 36 2 36 -6 0 -8 -43 -11 -140 -11 -92 0 -140 -4 -140 -11 0
-5 5 -7 12 -3 7 4 8 3 4 -4 -13 -22 -46 -14 -47 11 -3 99 1 450 5 455 3 3 6
-97 6 -223 0 -126 3 -226 6 -222 4 3 6 102 5 219 -1 199 4 276 16 265 2 -3 5
-105 5 -227z m64 214 c-3 -7 -1 -16 5 -19 5 -4 3 -13 -6 -22 -9 -8 -19 -12
-23 -8 -4 4 -1 10 6 12 6 3 9 9 6 14 -3 6 -11 5 -20 -2 -8 -6 -18 -8 -22 -4
-4 4 -2 10 5 12 7 2 10 10 7 17 -4 9 4 14 21 14 18 0 25 -5 21 -14z m71 -29
c-13 -13 -16 -13 -27 0 -10 12 -10 18 0 30 11 13 14 13 27 0 13 -13 13 -17 0
-30z m77 26 c7 -11 -3 -41 -14 -41 -11 0 -21 30 -14 41 3 5 9 9 14 9 5 0 11
-4 14 -9z m81 -1 c4 -6 1 -18 -6 -26 -11 -13 -14 -13 -27 0 -8 8 -11 19 -8 25
9 14 33 14 41 1z m-231 -81 c-3 -5 0 -9 7 -9 9 0 9 -3 0 -14 -9 -11 -9 -16 0
-21 17 -11 -17 -28 -41 -20 -21 7 -28 25 -9 25 8 0 7 6 -2 17 -12 15 -12 16 5
10 15 -6 17 -5 7 7 -9 11 -7 14 14 14 13 0 22 -4 19 -9z m144 -1 c15 -15 15
-61 0 -76 -7 -7 -34 -12 -60 -12 l-48 0 0 50 0 50 48 0 c26 0 53 -5 60 -12z
m96 -4 c4 -9 5 -17 4 -18 -2 -1 -10 -7 -19 -14 -13 -10 -19 -8 -35 10 -16 19
-17 21 -2 15 12 -4 15 -2 11 9 -3 9 2 14 15 14 11 0 23 -7 26 -16z m-36 -46
c8 -8 15 -8 27 2 9 8 15 8 15 2 0 -6 -5 -14 -10 -17 -6 -4 -8 -10 -5 -15 3 -4
-1 -13 -9 -19 -10 -9 -16 -8 -26 4 -7 8 -9 15 -4 15 4 0 3 5 -4 12 -14 14 -16
28 -4 28 4 0 13 -5 20 -12z m-198 -52 c-6 -6 -6 -14 2 -23 14 -17 2 -31 -14
-15 -15 15 -28 15 -28 1 0 -5 4 -8 9 -4 5 3 12 1 15 -4 11 -16 -8 -20 -28 -5
-15 10 -16 17 -8 27 8 10 8 17 1 24 -8 8 -1 11 25 10 23 -1 33 -4 26 -11z
m105 -41 c0 -22 -31 -33 -47 -17 -17 17 -1 44 24 40 15 -2 23 -10 23 -23z m72
9 c10 -26 -14 -41 -35 -21 -15 16 -15 19 -2 27 21 14 30 12 37 -6z m44 -62
c-6 -2 -11 -8 -11 -13 0 -4 6 -6 13 -3 17 6 19 -28 3 -38 -8 -6 -6 -11 4 -17
8 -6 11 -13 7 -17 -4 -4 -13 -2 -19 4 -9 9 -15 9 -25 0 -7 -6 -17 -8 -20 -4
-4 4 -1 11 6 15 9 6 10 14 5 22 -15 24 -13 41 2 35 9 -3 12 -1 9 5 -4 5 -4 17
-1 26 5 13 9 13 22 2 10 -8 12 -15 5 -17z m-226 -2 c-3 -5 -2 -10 4 -10 7 0 7
-8 0 -27 -6 -17 -6 -30 0 -36 7 -7 5 -14 -6 -23 -15 -10 -15 -14 -4 -28 11
-13 11 -19 0 -32 -12 -14 -14 -14 -26 2 -10 13 -10 21 -1 32 10 11 8 17 -7 28
-17 13 -18 16 -5 24 11 7 12 12 4 18 -7 4 -10 18 -9 32 3 32 1 30 31 30 14 0
23 -4 19 -10z m148 -22 c8 -12 7 -24 -1 -42 -10 -23 -18 -26 -62 -26 l-50 0 0
38 c0 21 3 42 7 46 14 14 96 2 106 -16z m-79 -128 c-20 -20 -43 2 -25 24 10
12 16 13 26 3 11 -10 11 -14 -1 -27z m94 12 c4 -24 -20 -30 -47 -13 -12 8 -13
12 -1 26 18 22 44 15 48 -13z m68 7 c10 -17 -13 -36 -27 -22 -12 12 -4 33 11
33 5 0 12 -5 16 -11z"/>
<path d="M906 1248 c-23 -113 -93 -554 -90 -560 7 -11 72 -10 94 2 12 6 20 26
25 60 l7 51 51 -3 51 -3 11 -55 c9 -51 12 -55 41 -58 19 -2 40 4 54 16 l24 20
-42 253 c-24 140 -45 264 -48 277 -4 21 -9 22 -89 22 -80 0 -85 -1 -89 -22z
m104 -23 c0 -9 6 -12 15 -9 8 4 15 1 15 -5 0 -7 -6 -14 -14 -17 -8 -3 -17 -15
-21 -27 l-6 -22 -9 21 c-4 12 -15 24 -24 27 -24 9 -20 30 4 22 14 -5 20 -2 20
9 0 9 5 16 10 16 6 0 10 -7 10 -15z m-33 -67 l23 -21 24 22 c13 12 27 18 30
13 3 -5 -6 -17 -20 -27 l-26 -17 23 -24 c29 -31 17 -45 -14 -16 l-23 22 -22
-22 c-12 -12 -25 -18 -29 -14 -4 4 3 16 16 27 l24 20 -22 22 c-36 40 -23 52
16 15z m-17 -40 c0 -5 -6 -8 -14 -8 -16 0 -38 24 -30 33 7 7 44 -14 44 -25z
m120 23 c0 -15 -28 -33 -40 -26 -7 5 -5 12 7 21 21 16 33 18 33 5z m-70 -142
c0 -57 -3 -80 -12 -77 -7 3 -11 30 -10 76 1 87 0 82 12 82 6 0 10 -34 10 -81z
m-70 17 c-7 -9 -16 -16 -20 -16 -15 0 -20 32 -9 47 11 12 14 12 27 -1 13 -12
13 -18 2 -30z m144 28 c6 -16 -9 -44 -24 -44 -14 0 -20 32 -9 46 15 18 25 18
33 -2z m-147 -90 c3 -8 1 -20 -5 -26 -15 -15 -43 8 -35 28 7 19 32 18 40 -2z
m160 0 c9 -23 -13 -40 -32 -24 -12 10 -13 16 -4 26 15 18 28 18 36 -2z m-167
-76 c0 -4 -5 -8 -11 -8 -8 0 -7 -6 2 -16 12 -15 11 -16 -8 -10 -13 4 -24 2
-29 -6 -4 -7 -4 -10 1 -6 13 12 33 -11 28 -32 -8 -28 -17 -25 -31 12 -8 23 -9
35 -1 45 8 9 8 13 0 13 -6 0 -11 4 -11 8 0 5 14 9 30 9 17 0 30 -4 30 -9z m90
-2 c-6 -6 -5 -15 3 -25 10 -12 9 -14 -7 -8 -10 4 -24 3 -31 -3 -9 -7 -15 -7
-19 -1 -4 5 -2 13 4 16 8 5 8 11 0 20 -9 10 -4 13 25 12 23 -1 32 -4 25 -11z
m96 -1 c-2 -7 1 -18 7 -25 9 -9 7 -11 -8 -9 -11 2 -25 0 -32 -4 -6 -4 -14 -3
-17 2 -4 5 -2 13 4 16 8 5 8 11 1 19 -8 10 -3 13 20 13 19 0 28 -5 25 -12z
m-9 -76 c-15 -24 -23 -24 -30 0 -6 25 12 44 29 30 10 -8 11 -15 1 -30z m24
-34 c0 -13 -41 -19 -41 -7 0 11 20 22 33 18 5 -1 8 -6 8 -11z"/>
<path d="M1282 1253 c-58 -28 -62 -49 -62 -280 0 -293 4 -298 242 -291 121 3
129 4 152 28 19 19 25 38 28 80 l3 55 -113 5 c-85 4 -115 9 -122 20 -15 24
-13 255 3 268 7 6 62 13 123 14 l109 3 -1 55 0 55 -165 2 c-135 2 -170 0 -197
-14z m88 -29 c-8 -8 -7 -13 2 -17 7 -2 9 -8 5 -13 -4 -4 -19 4 -34 18 l-26 27
31 -1 c24 -1 29 -4 22 -14z m74 1 c5 -15 -2 -45 -11 -45 -2 0 -11 7 -19 15
-13 12 -13 17 -2 29 17 19 24 20 32 1z m144 -31 c-13 -13 -16 -13 -28 0 -10
13 -10 19 0 31 11 13 14 13 27 -1 14 -14 14 -17 1 -30z m-71 25 c9 -9 8 -15
-2 -25 -17 -18 -22 -18 -29 2 -11 29 10 44 31 23z m-210 -78 c-1 -44 1 -83 6
-87 4 -4 20 -7 37 -7 23 0 27 -3 19 -13 -7 -8 -7 -14 1 -19 5 -3 10 -11 10
-17 0 -7 -6 -6 -15 2 -12 10 -18 10 -30 0 -19 -16 -32 -5 -17 13 12 13 7 27
-9 27 -4 0 -7 -54 -5 -121 2 -100 6 -123 21 -137 16 -16 17 -16 6 6 -10 18 -9
23 4 28 23 9 41 -11 27 -29 -10 -12 -2 -14 50 -12 35 1 68 -2 75 -7 7 -6 20
-5 33 2 11 6 26 8 32 4 7 -5 26 -7 43 -6 23 2 26 0 15 -8 -8 -5 -77 -10 -152
-10 -82 0 -138 -4 -138 -10 0 -5 -9 -6 -22 -1 -24 9 -35 36 -37 90 -1 42 6 37
14 -8 7 -42 22 -71 37 -71 6 0 4 8 -5 18 -15 16 -17 48 -17 235 0 137 4 217
10 217 6 0 9 -32 7 -79z m69 -4 c-1 -7 -5 -17 -9 -24 -4 -6 -1 -14 5 -16 10
-4 9 -8 -2 -16 -22 -16 -33 -13 -25 7 5 14 4 15 -6 5 -7 -7 -17 -13 -23 -13
-6 0 -5 5 2 12 9 9 9 15 -1 27 -10 12 -9 14 7 8 15 -6 17 -5 7 6 -9 11 -5 14
18 15 17 0 28 -4 27 -11z m-10 -192 c-3 -8 0 -15 6 -15 7 0 6 -5 -2 -15 -7 -9
-20 -13 -29 -10 -9 3 -3 -6 13 -20 29 -24 31 -49 2 -26 -11 9 -15 9 -18 0 -3
-8 -9 -9 -17 -5 -11 7 -11 10 0 17 10 6 11 11 3 17 -17 11 -13 44 4 37 12 -4
12 -3 3 9 -9 11 -9 15 1 19 26 11 40 7 34 -8z m78 -132 c9 -22 -10 -41 -25
-26 -13 13 -5 43 10 43 5 0 12 -8 15 -17z m70 0 c8 -21 -10 -41 -24 -27 -11
11 -3 44 10 44 4 0 11 -8 14 -17z m74 -26 c-13 -13 -16 -13 -26 3 -15 25 6 46
27 26 12 -13 12 -16 -1 -29z"/>
<path d="M117 1153 c-4 -3 -2 -12 4 -19 18 -22 0 -36 -37 -29 -38 7 -40 4 -21
-26 10 -17 9 -23 0 -26 -17 -6 -16 -23 0 -23 8 0 21 -8 31 -18 15 -18 15 -20
-2 -35 -10 -10 -24 -17 -30 -17 -16 0 -15 -17 1 -23 9 -3 9 -9 -1 -26 -17 -30
-15 -33 16 -26 31 6 64 -17 42 -30 -5 -3 -10 -10 -10 -16 0 -12 37 -12 45 2 5
7 14 5 30 -5 27 -18 37 -11 29 20 -7 29 15 41 45 25 24 -14 39 3 21 24 -7 8
-10 23 -7 34 3 13 -3 22 -20 30 -30 14 -27 42 4 56 16 7 21 15 17 28 -3 10 0
24 6 32 18 21 3 37 -21 24 -31 -16 -52 -4 -45 26 7 28 -4 32 -34 13 -15 -10
-22 -10 -32 0 -14 14 -22 15 -31 5z m72 -57 c6 -8 10 -20 9 -27 -2 -9 5 -13
20 -11 27 4 28 -8 2 -31 -25 -21 -25 -43 -1 -64 23 -19 19 -33 -9 -33 -12 0
-17 -5 -14 -13 7 -18 -22 -41 -41 -33 -8 3 -15 16 -15 30 0 19 -4 23 -20 19
-24 -6 -28 22 -5 31 19 7 19 55 0 62 -23 9 -19 37 5 31 16 -4 20 0 20 17 0 37
27 49 49 22z"/>
<path d="M1767 1153 c-4 -3 -3 -11 3 -17 5 -7 5 -18 0 -26 -7 -12 -15 -13 -40
-3 -35 13 -49 1 -25 -23 12 -12 13 -20 6 -27 -16 -16 -13 -24 9 -30 42 -11 34
-53 -14 -70 -8 -3 -7 -8 1 -18 10 -10 9 -16 -4 -31 -22 -24 -3 -49 21 -28 24
19 49 5 42 -24 -8 -31 2 -38 27 -21 18 13 24 13 43 0 26 -17 36 -10 28 21 -7
29 15 41 45 25 24 -13 39 3 21 24 -6 8 -9 23 -6 33 5 13 -1 22 -19 30 -14 6
-25 19 -25 27 0 8 11 21 25 27 18 8 24 17 19 30 -3 10 0 25 6 33 17 21 3 37
-19 23 -29 -18 -54 -3 -47 27 7 28 -4 32 -34 13 -15 -10 -22 -10 -32 0 -14 14
-22 15 -31 5z m71 -60 c5 -10 7 -24 4 -32 -3 -9 1 -11 16 -7 28 9 35 -8 12
-29 -24 -22 -25 -38 -5 -55 21 -18 19 -40 -5 -40 -12 0 -17 -5 -14 -13 7 -18
-22 -41 -41 -33 -8 3 -15 15 -15 27 0 16 -5 20 -19 16 -27 -7 -33 17 -10 36
24 21 24 39 -1 62 -23 21 -16 39 11 32 14 -4 19 0 19 17 0 39 32 51 48 19z"/>
<path d="M331 606 c-17 -20 -3 -26 67 -26 l64 0 64 -59 c252 -237 725 -228
970 17 37 37 46 41 100 44 44 2 59 7 59 18 0 13 -81 15 -657 17 -529 2 -658 0
-667 -11z m1149 -33 c-1 -14 -112 -93 -174 -123 -159 -78 -430 -81 -600 -6
-52 23 -167 103 -181 126 -4 7 165 10 474 10 265 0 481 -3 481 -7z"/>
<path d="M620 534 c0 -11 5 -14 16 -10 23 9 37 -3 23 -20 -9 -11 -8 -14 5 -14
22 0 31 27 16 45 -17 20 -60 20 -60 -1z"/>
<path d="M726 534 c-9 -8 -16 -22 -16 -30 0 -16 35 -54 51 -54 20 0 49 21 49
35 0 20 -33 36 -51 24 -13 -8 -12 -10 10 -13 19 -2 23 -16 7 -22 -16 -6 -46
11 -46 27 0 17 31 37 50 32 11 -3 20 0 20 6 0 17 -56 13 -74 -5z"/>
<path d="M1204 538 c-5 -7 0 -9 14 -6 31 9 60 -16 46 -39 -13 -21 -35 -24 -42
-5 -2 8 2 10 14 5 12 -4 15 -2 12 8 -6 19 -29 18 -42 -3 -8 -14 -7 -22 7 -35
16 -16 20 -16 45 -3 30 17 40 53 22 76 -15 17 -66 19 -76 2z"/>
<path d="M1322 533 c-5 -10 -7 -24 -5 -30 6 -15 33 -17 33 -3 0 6 -5 10 -11
10 -5 0 -7 5 -4 10 4 6 15 10 24 8 10 -2 19 2 20 7 3 19 -47 17 -57 -2z"/>
<path d="M867 523 c-13 -12 -7 -25 8 -19 21 8 19 -4 -6 -31 -19 -19 -20 -23
-6 -29 21 -8 49 -1 45 11 -2 6 -6 9 -11 7 -4 -1 -2 6 4 17 20 31 -10 69 -34
44z"/>
<path d="M942 518 c-28 -28 -3 -85 32 -72 13 5 16 16 14 43 -3 38 -24 51 -46
29z"/>
<path d="M1017 523 c-13 -12 -7 -25 8 -19 9 3 15 0 15 -8 0 -8 -7 -16 -15 -20
-28 -10 -17 -36 15 -36 17 0 30 5 30 10 0 6 -7 10 -17 10 -14 0 -14 2 2 20 15
16 15 22 5 35 -13 16 -32 20 -43 8z"/>
<path d="M1102 507 c-27 -29 -28 -47 -3 -47 11 0 22 -6 24 -12 7 -18 29 12 22
30 -3 8 -5 22 -5 33 0 25 -12 24 -38 -4z"/>
<path d="M377 492 l-37 -38 24 -23 c32 -30 74 -30 98 -1 23 29 23 41 -3 74
-27 35 -38 33 -82 -12z m73 -21 c0 -4 -6 -15 -13 -25 -12 -16 -17 -17 -36 -6
l-23 12 23 24 c17 18 25 21 36 13 7 -6 13 -15 13 -18z"/>
<path d="M1522 497 c-29 -30 -28 -35 13 -82 l34 -40 32 31 c38 38 31 69 -7 33
-28 -26 -45 -18 -20 10 10 11 13 22 8 25 -5 3 -15 -1 -22 -9 -7 -8 -17 -12
-22 -9 -5 3 0 16 11 28 12 12 18 26 14 29 -11 11 -18 8 -41 -16z"/>
<path d="M493 392 c-44 -28 -59 -58 -24 -49 25 6 51 -10 51 -33 0 -11 6 -20
13 -20 9 0 18 22 24 58 15 83 7 89 -64 44z"/>
<path d="M1417 402 c-23 -25 -21 -58 3 -82 24 -24 48 -25 78 -4 25 17 29 44 7
44 -8 0 -15 -4 -15 -9 0 -15 -32 -22 -46 -10 -21 18 -17 39 11 49 14 5 25 14
25 20 0 17 -46 11 -63 -8z"/>
<path d="M614 359 c-4 -7 1 -16 10 -21 15 -8 14 -12 -4 -48 -24 -47 -24 -50
-4 -50 9 0 22 16 31 38 12 33 19 38 39 34 39 -7 28 16 -18 38 -49 24 -45 23
-54 9z"/>
<path d="M1333 343 c2 -10 8 -26 12 -36 7 -16 4 -16 -28 3 -51 30 -60 19 -33
-41 28 -59 31 -63 45 -54 8 4 6 16 -4 36 -18 35 -13 36 31 8 29 -18 35 -18 40
-5 6 17 -42 106 -58 106 -6 0 -8 -8 -5 -17z"/>
<path d="M711 265 c-34 -48 -34 -73 0 -52 17 10 22 9 39 -13 24 -32 35 -20 32
33 -6 91 -23 99 -71 32z"/>
<path d="M1181 291 c-8 -5 -21 -7 -29 -3 -12 4 -14 -3 -8 -43 11 -71 14 -75
49 -71 46 6 68 17 64 30 -5 12 -11 12 -39 1 -12 -5 -18 -2 -18 8 0 8 9 17 21
20 12 3 18 10 15 15 -3 6 -15 8 -26 5 -26 -7 -26 14 0 22 11 3 20 11 20 16 0
11 -31 12 -49 0z"/>
<path d="M918 273 c-30 -7 -31 -36 -2 -60 16 -12 25 -25 21 -29 -3 -4 -12 -2
-20 4 -7 6 -18 7 -25 3 -20 -12 12 -33 45 -29 22 2 29 9 31 30 3 22 -2 29 -22
34 -14 3 -26 11 -26 16 0 6 11 7 25 4 14 -4 25 -2 25 3 0 14 -32 28 -52 24z"/>
<path d="M1025 255 c-30 -29 -31 -45 -7 -75 19 -24 66 -30 84 -12 17 17 0 34
-22 22 -14 -7 -23 -6 -34 6 -9 8 -16 19 -16 23 0 17 27 30 48 24 26 -6 32 21
6 31 -26 10 -34 7 -59 -19z"/>
</g>
</svg>
